# xmcd
#
# Track frame offsets: 
#        150
#        30748
#        48600
#        68863
#        94321
#        134442
#        146341
#        163650
#        193736
#        218153
#        237682
#        256230
#        288837
#        307094
#
# Disc length: 4361 seconds
#
# Revision: 2
# Processed by: cddbd v1.4PL0 Copyright (c) Steve Scherf et al.
# Submitted via: ExactAudioCopy v0.90b4
#
DISCID=da11070e
DTITLE=雅尼 - 在神圣的土地上（2）
DYEAR=1900
DGENRE=Pop
TTITLE0=Sntorini  桑托尼
TTITLE1=Aria  咏叹调魅力
TTITLE2=Refceceions Of Passion  真我激情
TTITLE3=Flight Of Fantasy  幻想飞行
TTITLE4=Standing Motion  站在动中`
TTITLE5=Marching Seasen  进行季节
TTITLE6=A Dagio In Cminor  C  C小调常板
TTITLE7=Triblote  祭品
TTITLE8=Love In All  爱的全部
TTITLE9=Song For Anlarctica  阿拉迪卡之歌
TTITLE10=Within Attraction  吸引
TTITLE11=Waltz In 718  718华尔路
TTITLE12=In The Mirror  镜中
TTITLE13=Before I Go  我将离去
EXTD=
EXTT0=
EXTT1=
EXTT2=
EXTT3=
EXTT4=
EXTT5=
EXTT6=
EXTT7=
EXTT8=
EXTT9=
EXTT10=
EXTT11=
EXTT12=
EXTT13=
PLAYORDER=
